<svg width="280" height="50" viewBox="0 0 280 50" fill="none" xmlns="http://www.w3.org/2000/svg">
<mask id="mask0_1144_15451" style="mask-type:luminance" maskUnits="userSpaceOnUse" x="0" y="0" width="279" height="50">
<path d="M278.783 0H0V49.4H278.783V0Z" fill="white"/>
</mask>
<g mask="url(#mask0_1144_15451)">
<path d="M24.7165 34.35C27.2498 34.35 29.2498 33.6166 30.6998 32.1666C32.1498 30.7166 32.8831 28.5833 32.8831 25.8333V15.0333H29.3998V25.7333C29.3998 27.6166 28.9998 29 28.1998 29.8333C27.3998 30.6666 26.2665 31.0833 24.7498 31.0833C23.2331 31.0833 22.1331 30.6666 21.3331 29.8333C20.5331 29 20.1331 27.6166 20.1331 25.7333V15.0333H16.5665V25.8333C16.5665 28.5833 17.2998 30.7166 18.7498 32.1666C20.1998 33.6166 22.2165 34.35 24.7165 34.35Z" fill="#F36E21"/>
<path d="M77.3334 25.6C78.0001 24.5666 78.3334 23.3333 78.3334 21.9166C78.3334 20.5 78.0001 19.2666 77.3334 18.2166C76.6667 17.1833 75.7167 16.3667 74.5001 15.8333C73.3001 15.3 71.8501 15.0333 70.1834 15.0333H62.55V34.35H66.1334V28.7666H70.1834C70.5001 28.7666 70.8167 28.7666 71.1167 28.7333L75.05 34.35H79.1L74.55 27.9333C75.75 27.3833 76.6834 26.6 77.3334 25.5833M70.1167 25.5666H66.15V18.2666H70.1167C71.6667 18.2666 72.85 18.6 73.6167 19.2333C74.3667 19.8666 74.7334 20.7333 74.7334 21.9C74.7334 23.0666 74.3667 23.95 73.6 24.5833C72.8334 25.2333 71.6501 25.55 70.1001 25.55" fill="#F36E21"/>
<path d="M122.867 32.9666C124.167 32.0166 124.833 30.65 124.833 28.9166C124.833 27.7833 124.567 26.8 124.05 26.0166C123.55 25.25 122.85 24.6666 122 24.2666C122.434 23.9333 122.817 23.5166 123.117 23.05C123.617 22.2833 123.867 21.35 123.867 20.2666C123.867 18.65 123.233 17.35 121.967 16.4C120.75 15.4833 119.017 15.0333 116.8 15.0333H108.083V34.35H117.317C119.733 34.35 121.6 33.8833 122.867 32.95M111.667 18.1166H116.55C117.767 18.1166 118.717 18.3333 119.383 18.7666C119.983 19.1666 120.267 19.75 120.267 20.5666C120.267 21.3833 119.983 21.9666 119.383 22.3666C118.733 22.8 117.783 23.0166 116.55 23.0166H111.667V18.1166ZM111.667 31.25V26.1166H117.217C118.567 26.1166 119.6 26.3333 120.283 26.7833C120.917 27.1833 121.217 27.8166 121.217 28.7C121.217 29.5833 120.917 30.2 120.283 30.6C119.6 31.0333 118.567 31.25 117.217 31.25H111.667Z" fill="#F36E21"/>
<path d="M160.767 15.0333L152.017 34.35H172.767L163.983 15.0333H160.767ZM157.133 31.2833L162.367 19.3833L167.6 31.2833H157.133Z" fill="#F36E21"/>
<path d="M213 15.0333V27.8166L202.7 15.0333H199.833V34.35H203.433V21.5666L213.717 34.35H216.583V15.0333H213Z" fill="#F36E21"/>
<path d="M229.4 0H0V49.4H278.783V0H229.383H229.4ZM45.8833 45.8833H3.51667V3.51667H45.8833V45.8833ZM49.4333 3.51667H91.7667V45.8833H49.4333V3.51667ZM137.65 45.8833H95.3167V3.51667H137.65V45.8833ZM141.183 3.51667H183.517V45.8833H141.183V3.51667ZM187.067 3.51667H229.4V45.8833H187.067V3.51667ZM275.283 45.8833H232.917V3.51667H275.283V45.8833Z" fill="#F36E21"/>
<path d="M246.933 31.6C247.833 32.4667 248.9 33.15 250.133 33.6334C251.35 34.1167 252.7 34.3667 254.117 34.3667C255.533 34.3667 256.867 34.1334 258.067 33.65C259.267 33.1667 260.35 32.5 261.25 31.6334C262.15 30.7667 262.867 29.7334 263.367 28.5667C263.867 27.4 264.117 26.1 264.117 24.7167C264.117 23.3334 263.867 22.0334 263.367 20.8667C262.867 19.7 262.167 18.6667 261.25 17.8C260.35 16.9334 259.267 16.2501 258.067 15.7834C256.867 15.3168 255.533 15.0668 254.117 15.0668C252.7 15.0668 251.333 15.3168 250.117 15.8001C248.9 16.2834 247.833 16.9667 246.933 17.8334C246.033 18.7 245.333 19.7334 244.833 20.9C244.333 22.0667 244.083 23.35 244.083 24.7334C244.083 26.1167 244.333 27.4 244.833 28.5667C245.333 29.7334 246.05 30.7667 246.933 31.6334M248.083 22.1834C248.417 21.4167 248.867 20.7334 249.45 20.15C250.033 19.5667 250.717 19.1167 251.5 18.8C252.283 18.4834 253.167 18.3167 254.1 18.3167C255.033 18.3167 255.883 18.4834 256.667 18.8C257.45 19.1167 258.133 19.5667 258.717 20.15C259.3 20.7334 259.75 21.4167 260.067 22.1834C260.383 22.95 260.55 23.8167 260.55 24.7334C260.55 25.65 260.383 26.5167 260.067 27.2834C259.733 28.05 259.283 28.75 258.717 29.3167C258.133 29.9 257.45 30.35 256.667 30.65C255.883 30.9667 255.017 31.1334 254.1 31.1334C253.183 31.1334 252.283 30.9667 251.5 30.65C250.717 30.3334 250.017 29.8834 249.45 29.3C248.867 28.7167 248.4 28.0334 248.083 27.2667C247.767 26.5 247.6 25.6334 247.6 24.7167C247.6 23.8 247.767 22.9334 248.083 22.1667" fill="#F36E21"/>
</g>
</svg>